<?xml version="1.0" encoding="utf-8"?>
<!-- Generator: Adobe Illustrator 26.0.3, SVG Export Plug-In . SVG Version: 6.00 Build 0)  -->
<svg version="1.1" id="Layer_1" xmlns="http://www.w3.org/2000/svg" xmlns:xlink="http://www.w3.org/1999/xlink" x="0px" y="0px"
	 viewBox="0 0 64 64" style="enable-background:new 0 0 64 64;" xml:space="preserve">
<style type="text/css">
	.st0{fill:#3891F2;}
	.st1{fill:#43E892;}
	.st2{opacity:0.2;fill:#D1E6E1;}
	.st3{fill:#2878CE;}
	.st4{opacity:0.25;fill:#2B2E37;}
	.st5{fill:#F4F4F4;}
	.st6{fill:#1560AA;}
</style>
<path class="st0" d="M51.9,61.8H12.1C5.4,61.8,0,56.4,0,49.7V14.3C0,7.6,5.4,2.2,12.1,2.2h39.8C58.6,2.2,64,7.6,64,14.3v35.4
	C64,56.4,58.6,61.8,51.9,61.8z"/>
<g>
	<path class="st1" d="M32.4,54h-0.8c-0.8,0-1.5-0.7-1.5-1.5v-7.2h3.8v7.2C33.9,53.3,33.2,54,32.4,54z"/>
	<path class="st1" d="M51.3,54h-0.8c-0.8,0-1.5-0.7-1.5-1.5V36.3h3.8v16.2C52.8,53.3,52.2,54,51.3,54z"/>
	<g>
		<path class="st2" d="M53.3,40.9C53.3,40.9,53.3,40.9,53.3,40.9L53.3,40.9L53.3,40.9z"/>
	</g>
	<path class="st3" d="M59.7,28.8v-9.9c0-1-0.4-1.9-1.3-2.7c-0.9-0.7-1.9-1.1-3.1-1.1h-0.9v3.8c0.6,0,0.9,0.3,0.9,0.7V28
		c0,0.5-0.3,0.8-0.9,0.7v3.8h0.9c1.2,0,2.3-0.4,3.1-1.1C59.3,30.7,59.7,29.8,59.7,28.8L59.7,28.8z"/>
	<path class="st3" d="M40.8,38v-9.9c0-1-0.4-1.9-1.3-2.7c-0.9-0.7-1.9-1.1-3.1-1.1h-0.9v3.8c0.6,0,0.9,0.3,0.9,0.7v8.3
		c0,0.5-0.3,0.8-0.9,0.7v3.8h0.9c1.2,0,2.3-0.4,3.1-1.1C40.3,40,40.8,39.1,40.8,38L40.8,38z"/>
	<path class="st3" d="M21.9,45v-9.9c0-1-0.4-1.9-1.3-2.7c-0.9-0.7-1.9-1.1-3.1-1.1h-0.9v3.8c0.6,0,0.9,0.3,0.9,0.7v8.3
		c0,0.5-0.3,0.8-0.9,0.7v3.8h0.9c1.2,0,2.3-0.4,3.1-1.1C21.4,46.9,21.9,46,21.9,45L21.9,45z"/>
	<path class="st3" d="M15,11.8C15,11.8,15,11.8,15,11.8l0-0.3c0-0.4-0.1-0.8-0.4-1.1c-0.3-0.3-0.7-0.4-1.1-0.4h-0.3H13h-0.3
		c-0.4,0-0.8,0.1-1.1,0.4s-0.4,0.7-0.4,1.1v0.2c0,0,0,0,0,0v40.4c0,0,0,0,0,0v0.2c0,0.4,0.1,0.8,0.4,1.1c0.3,0.3,0.7,0.4,1.1,0.4H13
		h0.3h0.3c0.4,0,0.8-0.1,1.1-0.4s0.4-0.7,0.4-1.1v-0.2c0,0,0,0,0,0V11.8z"/>
	<path class="st3" d="M52.8,15.2v-3.4c0,0,0,0,0,0v-0.2c0-0.4-0.1-0.8-0.4-1.1c-0.3-0.3-0.7-0.4-1.1-0.4h-0.3h-0.3h-0.3
		c-0.4,0-0.8,0.1-1.1,0.4S49,11.1,49,11.5v0.2c0,0,0,0,0,0v7.1c0-1,0.4-1.9,1.1-2.7C50.9,15.5,51.8,15.2,52.8,15.2z"/>
	<path class="st4" d="M49,34.8v2.6c0,0,0,0,0,0v0.2c0,0.4,0.1,0.8,0.4,1.1c0.3,0.3,0.7,0.4,1.1,0.4h0.8c0.4,0,0.8-0.1,1.1-0.4
		s0.4-0.7,0.4-1.1v-0.2c0,0,0,0,0,0v-2.6H49z"/>
	<path class="st4" d="M30.1,44v2.6c0,0,0,0,0,0v0.2c0,0.4,0.1,0.8,0.4,1.1c0.3,0.3,0.7,0.4,1.1,0.4h0.8c0.4,0,0.8-0.1,1.1-0.4
		s0.4-0.7,0.4-1.1v-0.2c0,0,0,0,0,0V44H30.1z"/>
	<path class="st5" d="M20.3,45v-9.9c0-1-0.4-1.9-1.1-2.7c-0.7-0.7-1.6-1.1-2.7-1.1H15c-1.1,0-2,0.4-2.7,1.1
		c-0.7,0.7-1.1,1.6-1.1,2.7v17.4c0,0.4,0.1,0.8,0.4,1.1c0.3,0.3,0.7,0.4,1.1,0.4h0.8c0.4,0,0.8-0.1,1.1-0.4c0.3-0.3,0.4-0.7,0.4-1.1
		v-3c0-0.5,0.3-0.8,0.8-0.8h0.8c1.1,0,1.9-0.4,2.7-1.1C20,46.9,20.3,46,20.3,45L20.3,45z"/>
	<path class="st3" d="M33.9,24.4V11.8c0,0,0,0,0,0v-0.2c0-0.4-0.1-0.8-0.4-1.1c-0.3-0.3-0.7-0.4-1.1-0.4h-0.3h-0.3h-0.3
		c-0.4,0-0.8,0.1-1.1,0.4s-0.4,0.7-0.4,1.1v0.3v2.6v13.8c0-1,0.4-1.9,1.1-2.7C32,24.8,32.9,24.4,33.9,24.4z"/>
	<path class="st6" d="M33.9,37.3C33.9,37.3,33.9,37.3,33.9,37.3l0-8.3c0,0,0,0,0,0V37.3z"/>
	<path class="st5" d="M58.1,28.8v-9.9c0-1-0.4-1.9-1.1-2.7c-0.7-0.7-1.6-1.1-2.7-1.1h-1.5c0,0,0,0,0,0c-1,0-1.9,0.4-2.7,1.1
		C49.4,17,49,17.9,49,18.9v17.4c0,0.4,0.1,0.8,0.4,1.1c0.3,0.3,0.7,0.4,1.1,0.4h0.8c0.4,0,0.8-0.1,1.1-0.4c0.3-0.3,0.4-0.7,0.4-1.1
		v-3c0,0,0,0,0,0c0-0.5,0.3-0.7,0.8-0.7h0.8c1.1,0,1.9-0.4,2.7-1.1C57.8,30.7,58.2,29.8,58.1,28.8L58.1,28.8z"/>
	<path class="st5" d="M39.2,38v-9.9c0-1-0.4-1.9-1.1-2.7c-0.7-0.7-1.6-1.1-2.7-1.1h-1.5c0,0,0,0,0,0c-1,0-1.9,0.4-2.7,1.1
		c-0.7,0.7-1.1,1.6-1.1,2.7v17.4c0,0.4,0.1,0.8,0.4,1.1c0.3,0.3,0.7,0.4,1.1,0.4h0.8c0.4,0,0.8-0.1,1.1-0.4s0.4-0.7,0.4-1.1v-3
		c0,0,0,0,0,0c0-0.5,0.3-0.7,0.8-0.7h0.8c1.1,0,1.9-0.4,2.7-1.1C38.9,40,39.3,39.1,39.2,38L39.2,38z"/>
</g>
</svg>
